;Layer: Drill PTH
;EasyEDA v6.1.51, Sat, 29 Jun 2019 11:07:56 GMT
;355074110fe74479bc0a7dbe96e468b0,2a3559ba94084103b258dd4c46581d95,10
;Gerber Generator version 0.2
M48
METRIC,LZ,000.000
;Holesize 1 = 0.305 METRIC
T01C0.305
;Holesize 2 = 0.800 METRIC
T02C0.800
%
G05
G90
T01
X+009276Y+004958
X+006863Y+004958
X+009276Y+008641
X+009276Y+009403
X+014610Y+002799
X+014102Y+008260
X+015499Y+003561
X+018293Y+006863
X+004769Y+009149
X+010927Y+008387
X+011943Y+004323
X+006482Y+006101
X+006863Y+004069
X+015372Y+002291
X+019817Y+002799
X+016134Y+004577
T02
X+002542Y+009913G85X+003142Y+009913
X+002542Y+001273G85X+003142Y+001273
X+006622Y+001273G85X+007422Y+001273
X+006622Y+009913G85X+007422Y+009913
M30
