G04 Layer: TopPasteMaskLayer*
G04 EasyEDA v6.1.51, Sat, 29 Jun 2019 11:07:56 GMT*
G04 355074110fe74479bc0a7dbe96e468b0,2a3559ba94084103b258dd4c46581d95,10*
G04 Gerber Generator version 0.2*
G04 Scale: 100 percent, Rotated: No, Reflected: No *
G04 Dimensions in millimeters *
G04 leading zeros omitted , absolute positions ,3 integer and 3 decimal *
%FSLAX33Y33*%
%MOMM*%
G90*
G71D02*

%ADD19R,1.270000X2.740000*%

%LPD*%
G36*
G01X8739Y9093D02*
G01X8739Y8793D01*
G01X7439Y8793D01*
G01X7439Y9093D01*
G01X8739Y9093D01*
G37*
G36*
G01X8739Y8793D02*
G01X8739Y8493D01*
G01X7439Y8493D01*
G01X7439Y8793D01*
G01X8739Y8793D01*
G37*
G36*
G01X8739Y8293D02*
G01X8739Y7993D01*
G01X7439Y7993D01*
G01X7439Y8293D01*
G01X8739Y8293D01*
G37*
G36*
G01X8739Y7993D02*
G01X8739Y7693D01*
G01X7439Y7693D01*
G01X7439Y7993D01*
G01X8739Y7993D01*
G37*
G36*
G01X8740Y7493D02*
G01X8740Y7193D01*
G01X7440Y7193D01*
G01X7440Y7493D01*
G01X8740Y7493D01*
G37*
G36*
G01X8739Y6993D02*
G01X8739Y6693D01*
G01X7439Y6693D01*
G01X7439Y6993D01*
G01X8739Y6993D01*
G37*
G36*
G01X8739Y6493D02*
G01X8739Y6193D01*
G01X7439Y6193D01*
G01X7439Y6493D01*
G01X8739Y6493D01*
G37*
G36*
G01X8739Y5993D02*
G01X8739Y5693D01*
G01X7439Y5693D01*
G01X7439Y5993D01*
G01X8739Y5993D01*
G37*
G36*
G01X8739Y5493D02*
G01X8739Y5193D01*
G01X7439Y5193D01*
G01X7439Y5493D01*
G01X8739Y5493D01*
G37*
G36*
G01X8739Y4993D02*
G01X8739Y4693D01*
G01X7439Y4693D01*
G01X7439Y4993D01*
G01X8739Y4993D01*
G37*
G36*
G01X8740Y4493D02*
G01X8740Y4193D01*
G01X7440Y4193D01*
G01X7440Y4493D01*
G01X8740Y4493D01*
G37*
G36*
G01X8739Y3993D02*
G01X8739Y3693D01*
G01X7439Y3693D01*
G01X7439Y3993D01*
G01X8739Y3993D01*
G37*
G36*
G01X8740Y3493D02*
G01X8740Y3193D01*
G01X7439Y3193D01*
G01X7439Y3493D01*
G01X8740Y3493D01*
G37*
G36*
G01X8740Y3193D02*
G01X8740Y2893D01*
G01X7439Y2893D01*
G01X7439Y3193D01*
G01X8740Y3193D01*
G37*
G36*
G01X8739Y2693D02*
G01X8739Y2393D01*
G01X7439Y2393D01*
G01X7439Y2693D01*
G01X8739Y2693D01*
G37*
G36*
G01X8739Y2393D02*
G01X8739Y2093D01*
G01X7439Y2093D01*
G01X7439Y2393D01*
G01X8739Y2393D01*
G37*
G54D19*
G01X10673Y6963D03*
G01X13213Y4223D03*
G01X15753Y6963D03*
G01X18293Y4223D03*
G01X20833Y6963D03*
G01X23373Y4223D03*
M00*
M02*
