G04 Layer: BottomSolderMaskLayer*
G04 EasyEDA v6.1.51, Sat, 29 Jun 2019 11:07:56 GMT*
G04 355074110fe74479bc0a7dbe96e468b0,2a3559ba94084103b258dd4c46581d95,10*
G04 Gerber Generator version 0.2*
G04 Scale: 100 percent, Rotated: No, Reflected: No *
G04 Dimensions in millimeters *
G04 leading zeros omitted , absolute positions ,3 integer and 3 decimal *
%FSLAX33Y33*%
%MOMM*%
G90*
G71D02*

%ADD31C,1.403198*%
%ADD34C,0.453212*%
%ADD35C,0.903199*%

%LPD*%
G54D34*
G01X12723Y6689D02*
G01X12723Y7089D01*
G01X13173Y6689D02*
G01X13173Y7089D01*
G01X13623Y6689D02*
G01X13623Y7089D01*
G01X14073Y6689D02*
G01X14073Y7089D01*
G01X14523Y6689D02*
G01X14523Y7089D01*
G01X14973Y6689D02*
G01X14973Y7089D01*
G01X14973Y3589D02*
G01X14973Y3989D01*
G01X14523Y3589D02*
G01X14523Y3989D01*
G01X14073Y3589D02*
G01X14073Y3989D01*
G01X13623Y3589D02*
G01X13623Y3989D01*
G01X13173Y3589D02*
G01X13173Y3989D01*
G01X12723Y3589D02*
G01X12723Y3989D01*
G54D35*
G01X16397Y7498D02*
G01X17497Y7498D01*
G01X16397Y6228D02*
G01X17497Y6228D01*
G01X16397Y4958D02*
G01X17497Y4958D01*
G01X16397Y3688D02*
G01X17497Y3688D01*
G01X10199Y7498D02*
G01X11299Y7498D01*
G01X10199Y6228D02*
G01X11299Y6228D01*
G01X10199Y4958D02*
G01X11299Y4958D01*
G01X10199Y3688D02*
G01X11299Y3688D01*
G54D31*
G01X3142Y9913D02*
G01X2542Y9913D01*
G01X3142Y1273D02*
G01X2542Y1273D01*
G01X7422Y1273D02*
G01X6622Y1273D01*
G01X7422Y9913D02*
G01X6622Y9913D01*
G36*
G01X12497Y4387D02*
G01X12497Y6292D01*
G01X15199Y6292D01*
G01X15199Y4387D01*
G01X12497Y4387D01*
G37*
G36*
G01X2769Y2400D02*
G01X2769Y3706D01*
G01X3970Y3706D01*
G01X3970Y2400D01*
G01X2769Y2400D01*
G37*
G36*
G01X4168Y2400D02*
G01X4168Y3706D01*
G01X5370Y3706D01*
G01X5370Y2400D01*
G01X4168Y2400D01*
G37*
G36*
G01X2769Y4940D02*
G01X2769Y6246D01*
G01X3970Y6246D01*
G01X3970Y4940D01*
G01X2769Y4940D01*
G37*
G36*
G01X4168Y4940D02*
G01X4168Y6246D01*
G01X5370Y6246D01*
G01X5370Y4940D01*
G01X4168Y4940D01*
G37*
G36*
G01X2769Y7480D02*
G01X2769Y8786D01*
G01X3970Y8786D01*
G01X3970Y7480D01*
G01X2769Y7480D01*
G37*
G36*
G01X4168Y7480D02*
G01X4168Y8786D01*
G01X5370Y8786D01*
G01X5370Y7480D01*
G01X4168Y7480D01*
G37*
G36*
G01X18783Y5692D02*
G01X18783Y6894D01*
G01X20089Y6894D01*
G01X20089Y5692D01*
G01X18783Y5692D01*
G37*
G36*
G01X18783Y4293D02*
G01X18783Y5494D01*
G01X20089Y5494D01*
G01X20089Y4293D01*
G01X18783Y4293D01*
G37*
G36*
G01X12728Y8468D02*
G01X12728Y9322D01*
G01X13531Y9322D01*
G01X13531Y8468D01*
G01X12728Y8468D01*
G37*
G36*
G01X11880Y8468D02*
G01X11880Y9322D01*
G01X12682Y9322D01*
G01X12682Y8468D01*
G01X11880Y8468D01*
G37*
G36*
G01X12728Y1864D02*
G01X12728Y2718D01*
G01X13531Y2718D01*
G01X13531Y1864D01*
G01X12728Y1864D01*
G37*
G36*
G01X11880Y1864D02*
G01X11880Y2718D01*
G01X12682Y2718D01*
G01X12682Y1864D01*
G01X11880Y1864D01*
G37*
M00*
M02*
