G04 Layer: BottomPasteMaskLayer*
G04 EasyEDA v6.1.51, Sat, 29 Jun 2019 11:07:56 GMT*
G04 355074110fe74479bc0a7dbe96e468b0,2a3559ba94084103b258dd4c46581d95,10*
G04 Gerber Generator version 0.2*
G04 Scale: 100 percent, Rotated: No, Reflected: No *
G04 Dimensions in millimeters *
G04 leading zeros omitted , absolute positions ,3 integer and 3 decimal *
%FSLAX33Y33*%
%MOMM*%
G90*
G71D02*

%ADD15C,0.250012*%
%ADD21C,0.699999*%

%LPD*%
G54D15*
G01X12723Y6689D02*
G01X12723Y7089D01*
G01X13173Y6689D02*
G01X13173Y7089D01*
G01X13623Y6689D02*
G01X13623Y7089D01*
G01X14073Y6689D02*
G01X14073Y7089D01*
G01X14523Y6689D02*
G01X14523Y7089D01*
G01X14973Y6689D02*
G01X14973Y7089D01*
G01X14973Y3589D02*
G01X14973Y3989D01*
G01X14523Y3589D02*
G01X14523Y3989D01*
G01X14073Y3589D02*
G01X14073Y3989D01*
G01X13623Y3589D02*
G01X13623Y3989D01*
G01X13173Y3589D02*
G01X13173Y3989D01*
G01X12723Y3589D02*
G01X12723Y3989D01*
G54D21*
G01X16397Y7498D02*
G01X17497Y7498D01*
G01X16397Y6228D02*
G01X17497Y6228D01*
G01X16397Y4958D02*
G01X17497Y4958D01*
G01X16397Y3688D02*
G01X17497Y3688D01*
G01X10199Y7498D02*
G01X11299Y7498D01*
G01X10199Y6228D02*
G01X11299Y6228D01*
G01X10199Y4958D02*
G01X11299Y4958D01*
G01X10199Y3688D02*
G01X11299Y3688D01*
G36*
G01X12598Y4489D02*
G01X15098Y4489D01*
G01X15098Y6189D01*
G01X12598Y6189D01*
G01X12598Y4489D01*
G37*
G36*
G01X2869Y2503D02*
G01X3869Y2503D01*
G01X3869Y3603D01*
G01X2869Y3603D01*
G01X2869Y2503D01*
G37*
G36*
G01X4269Y2503D02*
G01X5269Y2503D01*
G01X5269Y3603D01*
G01X4269Y3603D01*
G01X4269Y2503D01*
G37*
G36*
G01X2869Y5043D02*
G01X3869Y5043D01*
G01X3869Y6143D01*
G01X2869Y6143D01*
G01X2869Y5043D01*
G37*
G36*
G01X4269Y5043D02*
G01X5269Y5043D01*
G01X5269Y6143D01*
G01X4269Y6143D01*
G01X4269Y5043D01*
G37*
G36*
G01X2869Y7583D02*
G01X3869Y7583D01*
G01X3869Y8683D01*
G01X2869Y8683D01*
G01X2869Y7583D01*
G37*
G36*
G01X4269Y7583D02*
G01X5269Y7583D01*
G01X5269Y8683D01*
G01X4269Y8683D01*
G01X4269Y7583D01*
G37*
G36*
G01X18886Y6793D02*
G01X18886Y5793D01*
G01X19986Y5793D01*
G01X19986Y6793D01*
G01X18886Y6793D01*
G37*
G36*
G01X18886Y5393D02*
G01X18886Y4393D01*
G01X19986Y4393D01*
G01X19986Y5393D01*
G01X18886Y5393D01*
G37*
G36*
G01X12829Y8570D02*
G01X13429Y8570D01*
G01X13429Y9220D01*
G01X12829Y9220D01*
G01X12829Y8570D01*
G37*
G36*
G01X11981Y8570D02*
G01X12581Y8570D01*
G01X12581Y9220D01*
G01X11981Y9220D01*
G01X11981Y8570D01*
G37*
G36*
G01X12829Y1966D02*
G01X13429Y1966D01*
G01X13429Y2616D01*
G01X12829Y2616D01*
G01X12829Y1966D01*
G37*
G36*
G01X11981Y1966D02*
G01X12581Y1966D01*
G01X12581Y2616D01*
G01X11981Y2616D01*
G01X11981Y1966D01*
G37*
M00*
M02*
