G04 Layer: BottomSilkLayer*
G04 EasyEDA v6.1.51, Sat, 29 Jun 2019 11:07:56 GMT*
G04 355074110fe74479bc0a7dbe96e468b0,2a3559ba94084103b258dd4c46581d95,10*
G04 Gerber Generator version 0.2*
G04 Scale: 100 percent, Rotated: No, Reflected: No *
G04 Dimensions in millimeters *
G04 leading zeros omitted , absolute positions ,3 integer and 3 decimal *
%FSLAX33Y33*%
%MOMM*%
G90*
G71D02*

%ADD10C,0.254000*%
%ADD14C,0.399999*%
%ADD16C,0.152400*%
%ADD27C,0.200000*%
%ADD28C,0.101600*%
%ADD29C,0.248920*%
%ADD30C,0.150012*%

%LPD*%
G54D10*
G01X12348Y3839D02*
G01X12348Y6839D01*
G01X15348Y6839D02*
G01X15348Y3839D01*
G01X15248Y3193D02*
G01X11943Y3193D01*
G01X11943Y7993D01*
G01X15753Y7993D01*
G01X15753Y3193D01*
G01X15248Y3193D01*
G54D27*
G01X4469Y2253D02*
G01X5569Y2253D01*
G01X5569Y3853D01*
G01X4469Y3853D01*
G01X3669Y2253D02*
G01X2569Y2253D01*
G01X2569Y3253D01*
G01X2569Y3853D01*
G01X3669Y3853D01*
G01X4469Y4793D02*
G01X5569Y4793D01*
G01X5569Y6393D01*
G01X4469Y6393D01*
G01X3669Y4793D02*
G01X2569Y4793D01*
G01X2569Y5793D01*
G01X2569Y6393D01*
G01X3669Y6393D01*
G01X4469Y7333D02*
G01X5569Y7333D01*
G01X5569Y8933D01*
G01X4469Y8933D01*
G01X3669Y7333D02*
G01X2569Y7333D01*
G01X2569Y8333D01*
G01X2569Y8933D01*
G01X3669Y8933D01*
G01X18636Y5193D02*
G01X18636Y4093D01*
G01X20236Y4093D01*
G01X20236Y5193D01*
G01X18636Y5993D02*
G01X18636Y7093D01*
G01X19636Y7093D01*
G01X20236Y7093D01*
G01X20236Y5993D01*
G54D28*
G01X12520Y8463D02*
G01X11885Y8463D01*
G01X11885Y9327D01*
G01X12418Y9327D01*
G01X12520Y9327D01*
G01X12901Y9327D02*
G01X13510Y9327D01*
G01X13510Y8463D01*
G01X12977Y8463D01*
G01X12901Y8463D01*
G01X12520Y1859D02*
G01X11885Y1859D01*
G01X11885Y2723D01*
G01X12418Y2723D01*
G01X12520Y2723D01*
G01X12901Y2723D02*
G01X13510Y2723D01*
G01X13510Y1859D01*
G01X12977Y1859D01*
G01X12901Y1859D01*
G54D30*
G01X24271Y1602D02*
G01X24271Y783D01*
G01X24216Y620D01*
G01X24107Y511D01*
G01X23943Y456D01*
G01X23834Y456D01*
G01X23671Y511D01*
G01X23562Y620D01*
G01X23507Y783D01*
G01X23507Y1602D01*
G01X22384Y1438D02*
G01X22493Y1547D01*
G01X22656Y1602D01*
G01X22874Y1602D01*
G01X23038Y1547D01*
G01X23147Y1438D01*
G01X23147Y1329D01*
G01X23093Y1220D01*
G01X23038Y1165D01*
G01X22929Y1111D01*
G01X22602Y1002D01*
G01X22493Y947D01*
G01X22438Y893D01*
G01X22384Y783D01*
G01X22384Y620D01*
G01X22493Y511D01*
G01X22656Y456D01*
G01X22874Y456D01*
G01X23038Y511D01*
G01X23147Y620D01*
G01X22024Y1602D02*
G01X22024Y456D01*
G01X22024Y1602D02*
G01X21533Y1602D01*
G01X21369Y1547D01*
G01X21314Y1493D01*
G01X21260Y1383D01*
G01X21260Y1274D01*
G01X21314Y1165D01*
G01X21369Y1111D01*
G01X21533Y1056D01*
G01X22024Y1056D02*
G01X21533Y1056D01*
G01X21369Y1002D01*
G01X21314Y947D01*
G01X21260Y838D01*
G01X21260Y674D01*
G01X21314Y565D01*
G01X21369Y511D01*
G01X21533Y456D01*
G01X22024Y456D01*
G01X20900Y947D02*
G01X19918Y947D01*
G01X18740Y1329D02*
G01X18794Y1438D01*
G01X18904Y1547D01*
G01X19013Y1602D01*
G01X19231Y1602D01*
G01X19340Y1547D01*
G01X19449Y1438D01*
G01X19503Y1329D01*
G01X19558Y1165D01*
G01X19558Y893D01*
G01X19503Y729D01*
G01X19449Y620D01*
G01X19340Y511D01*
G01X19231Y456D01*
G01X19013Y456D01*
G01X18904Y511D01*
G01X18794Y620D01*
G01X18740Y729D01*
G01X16776Y1438D02*
G01X16885Y1547D01*
G01X17049Y1602D01*
G01X17267Y1602D01*
G01X17431Y1547D01*
G01X17540Y1438D01*
G01X17540Y1329D01*
G01X17485Y1220D01*
G01X17431Y1165D01*
G01X17322Y1111D01*
G01X16994Y1002D01*
G01X16885Y947D01*
G01X16831Y893D01*
G01X16776Y783D01*
G01X16776Y620D01*
G01X16885Y511D01*
G01X17049Y456D01*
G01X17267Y456D01*
G01X17431Y511D01*
G01X17540Y620D01*
G01X16416Y893D02*
G01X15762Y893D01*
G01X15762Y1002D01*
G01X15816Y1111D01*
G01X15871Y1165D01*
G01X15980Y1220D01*
G01X16144Y1220D01*
G01X16253Y1165D01*
G01X16362Y1056D01*
G01X16416Y893D01*
G01X16416Y783D01*
G01X16362Y620D01*
G01X16253Y511D01*
G01X16144Y456D01*
G01X15980Y456D01*
G01X15871Y511D01*
G01X15762Y620D01*
G01X15402Y1220D02*
G01X15402Y456D01*
G01X15402Y893D02*
G01X15347Y1056D01*
G01X15238Y1165D01*
G01X15129Y1220D01*
G01X14965Y1220D01*
G01X14605Y1602D02*
G01X14551Y1547D01*
G01X14496Y1602D01*
G01X14551Y1656D01*
G01X14605Y1602D01*
G01X14551Y1220D02*
G01X14551Y456D01*
G01X13482Y1220D02*
G01X13482Y456D01*
G01X13482Y1056D02*
G01X13591Y1165D01*
G01X13700Y1220D01*
G01X13864Y1220D01*
G01X13973Y1165D01*
G01X14082Y1056D01*
G01X14136Y893D01*
G01X14136Y783D01*
G01X14082Y620D01*
G01X13973Y511D01*
G01X13864Y456D01*
G01X13700Y456D01*
G01X13591Y511D01*
G01X13482Y620D01*
G01X13122Y1602D02*
G01X13122Y456D01*
G01X11922Y1383D02*
G01X11813Y1438D01*
G01X11649Y1602D01*
G01X11649Y456D01*
G01X10580Y1220D02*
G01X10634Y1056D01*
G01X10743Y947D01*
G01X10907Y893D01*
G01X10962Y893D01*
G01X11125Y947D01*
G01X11234Y1056D01*
G01X11289Y1220D01*
G01X11289Y1274D01*
G01X11234Y1438D01*
G01X11125Y1547D01*
G01X10962Y1602D01*
G01X10907Y1602D01*
G01X10743Y1547D01*
G01X10634Y1438D01*
G01X10580Y1220D01*
G01X10580Y947D01*
G01X10634Y674D01*
G01X10743Y511D01*
G01X10907Y456D01*
G01X11016Y456D01*
G01X11180Y511D01*
G01X11234Y620D01*
G01X10165Y1329D02*
G01X10165Y1383D01*
G01X10111Y1493D01*
G01X10056Y1547D01*
G01X9947Y1602D01*
G01X9729Y1602D01*
G01X9620Y1547D01*
G01X9565Y1493D01*
G01X9511Y1383D01*
G01X9511Y1274D01*
G01X9565Y1165D01*
G01X9674Y1002D01*
G01X10220Y456D01*
G01X9456Y456D01*
G01X8442Y1438D02*
G01X8496Y1547D01*
G01X8660Y1602D01*
G01X8769Y1602D01*
G01X8933Y1547D01*
G01X9042Y1383D01*
G01X9096Y1111D01*
G01X9096Y838D01*
G01X9042Y620D01*
G01X8933Y511D01*
G01X8769Y456D01*
G01X8714Y456D01*
G01X8551Y511D01*
G01X8442Y620D01*
G01X8387Y783D01*
G01X8387Y838D01*
G01X8442Y1002D01*
G01X8551Y1111D01*
G01X8714Y1165D01*
G01X8769Y1165D01*
G01X8933Y1111D01*
G01X9042Y1002D01*
G01X9096Y838D01*
G54D16*
G01X11424Y10027D02*
G01X11424Y9247D01*
G01X11373Y9092D01*
G01X11269Y8988D01*
G01X11111Y8935D01*
G01X11007Y8935D01*
G01X10852Y8988D01*
G01X10748Y9092D01*
G01X10697Y9247D01*
G01X10697Y10027D01*
G01X10354Y9819D02*
G01X10250Y9872D01*
G01X10093Y10027D01*
G01X10093Y8935D01*
G01X18177Y9276D02*
G01X18957Y9276D01*
G01X19112Y9225D01*
G01X19216Y9121D01*
G01X19269Y8964D01*
G01X19269Y8860D01*
G01X19216Y8705D01*
G01X19112Y8601D01*
G01X18957Y8550D01*
G01X18177Y8550D01*
G01X18439Y8153D02*
G01X18385Y8153D01*
G01X18281Y8103D01*
G01X18230Y8049D01*
G01X18177Y7945D01*
G01X18177Y7739D01*
G01X18230Y7635D01*
G01X18281Y7582D01*
G01X18385Y7531D01*
G01X18489Y7531D01*
G01X18593Y7582D01*
G01X18748Y7686D01*
G01X19269Y8207D01*
G01X19269Y7478D01*
G01X8829Y3561D02*
G01X8829Y2471D01*
G01X8829Y3561D02*
G01X8362Y3561D01*
G01X8207Y3510D01*
G01X8153Y3460D01*
G01X8103Y3355D01*
G01X8103Y3251D01*
G01X8153Y3147D01*
G01X8207Y3094D01*
G01X8362Y3043D01*
G01X8829Y3043D01*
G01X8466Y3043D02*
G01X8103Y2471D01*
G01X7760Y3355D02*
G01X7656Y3406D01*
G01X7498Y3561D01*
G01X7498Y2471D01*
G01X8788Y6228D02*
G01X8788Y5138D01*
G01X8788Y6228D02*
G01X8321Y6228D01*
G01X8166Y6177D01*
G01X8113Y6127D01*
G01X8062Y6022D01*
G01X8062Y5918D01*
G01X8113Y5814D01*
G01X8166Y5761D01*
G01X8321Y5710D01*
G01X8788Y5710D01*
G01X8425Y5710D02*
G01X8062Y5138D01*
G01X7666Y5969D02*
G01X7666Y6022D01*
G01X7615Y6127D01*
G01X7562Y6177D01*
G01X7457Y6228D01*
G01X7252Y6228D01*
G01X7148Y6177D01*
G01X7094Y6127D01*
G01X7043Y6022D01*
G01X7043Y5918D01*
G01X7094Y5814D01*
G01X7198Y5657D01*
G01X7719Y5138D01*
G01X6990Y5138D01*
G01X7973Y8509D02*
G01X8026Y8613D01*
G01X8131Y8717D01*
G01X8232Y8768D01*
G01X8440Y8768D01*
G01X8545Y8717D01*
G01X8649Y8613D01*
G01X8702Y8509D01*
G01X8753Y8354D01*
G01X8753Y8095D01*
G01X8702Y7938D01*
G01X8649Y7833D01*
G01X8545Y7729D01*
G01X8440Y7678D01*
G01X8232Y7678D01*
G01X8131Y7729D01*
G01X8026Y7833D01*
G01X7973Y7938D01*
G01X7630Y8562D02*
G01X7526Y8613D01*
G01X7371Y8768D01*
G01X7371Y7678D01*
G01X20965Y5702D02*
G01X20861Y5756D01*
G01X20757Y5860D01*
G01X20706Y5961D01*
G01X20706Y6170D01*
G01X20757Y6274D01*
G01X20861Y6378D01*
G01X20965Y6431D01*
G01X21120Y6482D01*
G01X21379Y6482D01*
G01X21537Y6431D01*
G01X21641Y6378D01*
G01X21745Y6274D01*
G01X21796Y6170D01*
G01X21796Y5961D01*
G01X21745Y5860D01*
G01X21641Y5756D01*
G01X21537Y5702D01*
G01X20965Y5309D02*
G01X20912Y5309D01*
G01X20808Y5255D01*
G01X20757Y5205D01*
G01X20706Y5100D01*
G01X20706Y4892D01*
G01X20757Y4788D01*
G01X20808Y4737D01*
G01X20912Y4684D01*
G01X21016Y4684D01*
G01X21120Y4737D01*
G01X21278Y4841D01*
G01X21796Y5360D01*
G01X21796Y4633D01*
G01X15646Y9530D02*
G01X15646Y8440D01*
G01X15646Y9530D02*
G01X15179Y9530D01*
G01X15024Y9479D01*
G01X14971Y9429D01*
G01X14920Y9324D01*
G01X14920Y9220D01*
G01X14971Y9116D01*
G01X15024Y9063D01*
G01X15179Y9012D01*
G01X15646Y9012D01*
G01X15283Y9012D02*
G01X14920Y8440D01*
G01X14473Y9530D02*
G01X13901Y9530D01*
G01X14211Y9116D01*
G01X14056Y9116D01*
G01X13952Y9063D01*
G01X13901Y9012D01*
G01X13848Y8857D01*
G01X13848Y8753D01*
G01X13901Y8595D01*
G01X14006Y8491D01*
G01X14161Y8440D01*
G01X14315Y8440D01*
G01X14473Y8491D01*
G01X14524Y8545D01*
G01X14577Y8649D01*
G01X15697Y2799D02*
G01X15697Y1709D01*
G01X15697Y2799D02*
G01X15230Y2799D01*
G01X15075Y2748D01*
G01X15022Y2698D01*
G01X14971Y2593D01*
G01X14971Y2489D01*
G01X15022Y2385D01*
G01X15075Y2332D01*
G01X15230Y2281D01*
G01X15697Y2281D01*
G01X15334Y2281D02*
G01X14971Y1709D01*
G01X14107Y2799D02*
G01X14628Y2073D01*
G01X13848Y2073D01*
G01X14107Y2799D02*
G01X14107Y1709D01*
G54D29*
G75*
G01X12849Y7740D02*
G02X12849Y7742I-125J1D01*
G01*
G54D14*
G75*
G01X11537Y2800D02*
G02X11537Y2802I-200J1D01*
G01*
M00*
M02*
