G04 Layer: TopLayer*
G04 EasyEDA v6.1.51, Sat, 29 Jun 2019 11:07:56 GMT*
G04 355074110fe74479bc0a7dbe96e468b0,2a3559ba94084103b258dd4c46581d95,10*
G04 Gerber Generator version 0.2*
G04 Scale: 100 percent, Rotated: No, Reflected: No *
G04 Dimensions in millimeters *
G04 leading zeros omitted , absolute positions ,3 integer and 3 decimal *
%FSLAX33Y33*%
%MOMM*%
G90*
G71D02*

%ADD10C,0.254000*%
%ADD11C,0.499999*%
%ADD12C,0.999998*%
%ADD13C,0.299999*%
%ADD14C,0.399999*%
%ADD15C,0.250012*%
%ADD16C,0.152400*%
%ADD17C,0.609600*%
%ADD19R,1.270000X2.740000*%
%ADD20C,1.199998*%

%LPD*%
G54D10*
G01X8089Y5343D02*
G01X8891Y5343D01*
G01X9276Y4958D01*
G01X8089Y6343D02*
G01X9034Y6343D01*
G01X9149Y6228D01*
G01X9276Y6101D01*
G01X9276Y4958D01*
G01X8089Y4843D02*
G01X6978Y4843D01*
G01X6863Y4958D01*
G01X6863Y4958D02*
G01X6863Y4958D01*
G01X6863Y5593D01*
G01X7113Y5843D01*
G01X8089Y5843D01*
G54D11*
G01X8089Y8943D02*
G01X9451Y8943D01*
G01X9530Y9022D01*
G54D12*
G01X9451Y8943D02*
G01X9197Y8943D01*
G01X10038Y9784D01*
G01X17150Y9784D01*
G01X18293Y8641D01*
G01X18293Y6863D01*
G01X18293Y6863D02*
G01X18293Y4223D01*
G54D13*
G01X8089Y8143D02*
G01X7508Y8143D01*
G01X7208Y7843D01*
G54D11*
G01X14102Y8260D02*
G01X14610Y7752D01*
G01X14610Y2799D01*
G54D12*
G01X10673Y6963D02*
G01X10673Y8133D01*
G01X10927Y8387D01*
G54D14*
G01X10927Y8387D02*
G01X10927Y7879D01*
G01X9619Y7879D01*
G01X8768Y7879D01*
G01X8768Y8133D01*
G54D11*
G01X4769Y9149D02*
G01X4769Y7814D01*
G01X5466Y7117D01*
G01X6482Y7117D01*
G01X6800Y7435D01*
G01X6800Y7435D02*
G01X7350Y7985D01*
G01X8089Y2243D02*
G01X8137Y2291D01*
G01X9911Y2291D01*
G01X11943Y4323D01*
G54D15*
G01X8089Y6843D02*
G01X7224Y6843D01*
G01X6482Y6101D01*
G01X8089Y3843D02*
G01X7089Y3843D01*
G01X6863Y4069D01*
G54D16*
G01X15499Y3561D02*
G01X15499Y6709D01*
G01X15753Y6963D01*
G54D15*
G01X15499Y3561D02*
G01X15499Y6709D01*
G01X15753Y6963D01*
G01X13213Y4223D02*
G01X13213Y3053D01*
G01X14102Y2164D01*
G01X15245Y2164D01*
G01X15372Y2291D01*
G01X15499Y3561D02*
G01X16896Y2164D01*
G01X21468Y2164D01*
G01X23373Y4069D01*
G01X23373Y4223D01*
G01X20833Y6963D02*
G01X20833Y3815D01*
G01X19817Y2799D01*
G01X16134Y4577D02*
G01X16134Y3815D01*
G01X17381Y2568D01*
G01X19817Y2799D02*
G01X19586Y2568D01*
G01X17381Y2568D01*
G54D12*
G01X10673Y6963D02*
G01X10011Y7625D01*
G01X9403Y7625D01*
G54D15*
G01X8090Y3343D02*
G01X6954Y3343D01*
G01X6863Y3434D01*
G01X6609Y3434D01*
G01X6482Y3561D01*
G01X5466Y4577D01*
G01X5466Y7117D01*
G36*
G01X8739Y9093D02*
G01X8739Y8793D01*
G01X7439Y8793D01*
G01X7439Y9093D01*
G01X8739Y9093D01*
G37*
G36*
G01X8739Y8793D02*
G01X8739Y8493D01*
G01X7439Y8493D01*
G01X7439Y8793D01*
G01X8739Y8793D01*
G37*
G36*
G01X8739Y8293D02*
G01X8739Y7993D01*
G01X7439Y7993D01*
G01X7439Y8293D01*
G01X8739Y8293D01*
G37*
G36*
G01X8739Y7993D02*
G01X8739Y7693D01*
G01X7439Y7693D01*
G01X7439Y7993D01*
G01X8739Y7993D01*
G37*
G36*
G01X8740Y7493D02*
G01X8740Y7193D01*
G01X7440Y7193D01*
G01X7440Y7493D01*
G01X8740Y7493D01*
G37*
G36*
G01X8739Y6993D02*
G01X8739Y6693D01*
G01X7439Y6693D01*
G01X7439Y6993D01*
G01X8739Y6993D01*
G37*
G36*
G01X8739Y6493D02*
G01X8739Y6193D01*
G01X7439Y6193D01*
G01X7439Y6493D01*
G01X8739Y6493D01*
G37*
G36*
G01X8739Y5993D02*
G01X8739Y5693D01*
G01X7439Y5693D01*
G01X7439Y5993D01*
G01X8739Y5993D01*
G37*
G36*
G01X8739Y5493D02*
G01X8739Y5193D01*
G01X7439Y5193D01*
G01X7439Y5493D01*
G01X8739Y5493D01*
G37*
G36*
G01X8739Y4993D02*
G01X8739Y4693D01*
G01X7439Y4693D01*
G01X7439Y4993D01*
G01X8739Y4993D01*
G37*
G36*
G01X8740Y4493D02*
G01X8740Y4193D01*
G01X7440Y4193D01*
G01X7440Y4493D01*
G01X8740Y4493D01*
G37*
G36*
G01X8739Y3993D02*
G01X8739Y3693D01*
G01X7439Y3693D01*
G01X7439Y3993D01*
G01X8739Y3993D01*
G37*
G36*
G01X8740Y3493D02*
G01X8740Y3193D01*
G01X7439Y3193D01*
G01X7439Y3493D01*
G01X8740Y3493D01*
G37*
G36*
G01X8740Y3193D02*
G01X8740Y2893D01*
G01X7439Y2893D01*
G01X7439Y3193D01*
G01X8740Y3193D01*
G37*
G36*
G01X8739Y2693D02*
G01X8739Y2393D01*
G01X7439Y2393D01*
G01X7439Y2693D01*
G01X8739Y2693D01*
G37*
G36*
G01X8739Y2393D02*
G01X8739Y2093D01*
G01X7439Y2093D01*
G01X7439Y2393D01*
G01X8739Y2393D01*
G37*
G54D19*
G01X10673Y6963D03*
G01X13213Y4223D03*
G01X15753Y6963D03*
G01X18293Y4223D03*
G01X20833Y6963D03*
G01X23373Y4223D03*
G54D17*
G01X9276Y4958D03*
G01X6863Y4958D03*
G01X9276Y8641D03*
G01X9276Y9403D03*
G01X14610Y2799D03*
G01X14102Y8260D03*
G01X15499Y3561D03*
G01X18293Y6863D03*
G01X4769Y9149D03*
G01X10927Y8387D03*
G01X11943Y4323D03*
G01X6482Y6101D03*
G01X6863Y4069D03*
G01X15372Y2291D03*
G01X19817Y2799D03*
G01X16134Y4577D03*
G54D20*
G01X3142Y9913D02*
G01X2542Y9913D01*
G01X3142Y1273D02*
G01X2542Y1273D01*
G01X7422Y1273D02*
G01X6622Y1273D01*
G01X7422Y9913D02*
G01X6622Y9913D01*
M00*
M02*
